<svg width="160" height="69" viewBox="0 0 160 69" fill="none" xmlns="http://www.w3.org/2000/svg">
<path d="M28.0663 40.5103C28.0026 40.3854 27.9541 40.2892 27.9043 40.1937C27.2911 39.0168 25.8136 38.2525 24.5016 38.4333C23.375 38.5884 22.4363 39.5251 22.1064 40.8475C21.7509 42.2735 22.0077 43.6482 22.5206 44.9848C23.3572 47.1644 24.6821 49.0286 26.314 50.6783C27.4427 51.8191 28.3428 51.7998 29.4537 50.6392C30.996 49.0276 32.2475 47.2182 33.1159 45.1559C33.6278 43.9409 34.0046 42.6894 34.0617 41.3607C34.1031 40.4011 33.9795 39.4769 33.4333 38.6532C32.7396 37.6073 31.5985 37.2991 30.4762 37.8513C29.7785 38.1946 29.2269 38.7073 28.7915 39.3431C28.5419 39.7077 28.3238 40.0936 28.0663 40.5103ZM49.7874 46.6373C49.7618 48.4345 49.3568 50.1466 48.5293 51.7374C47.1249 54.4365 45.0933 56.5285 42.3734 57.9309C39.6923 59.3132 36.9447 59.4714 34.1371 58.3709C32.9976 57.924 31.8613 57.4626 30.7502 56.9505C28.7313 56.0196 26.7208 56.0285 24.6562 56.8017C23.2061 57.3448 21.7344 57.84 20.2475 58.2701C18.7075 58.7157 17.1223 58.8785 15.5156 58.6951C14.1266 58.5367 12.9531 57.9215 11.9365 56.9904C10.6397 55.8031 9.60211 54.4167 8.9474 52.7817C8.10826 50.6864 8.30987 48.665 9.53158 46.7558C10.488 45.261 11.7794 44.0684 13.0303 42.8346C13.9397 41.9378 14.83 41.0169 15.6677 40.0535C16.6341 38.9416 17.2112 37.5999 17.6896 36.2214C18.1337 34.9425 18.5369 33.6495 18.9752 32.3685C19.2918 31.443 19.8727 30.6732 20.4468 29.8929C21.8289 28.0147 23.8003 27.1928 25.9771 26.7091C28.5574 26.1355 30.806 26.8751 32.7249 28.5723C33.9056 29.6164 34.9276 30.8395 36.0265 31.9768C37.8984 33.9139 39.884 35.723 42.1085 37.2511C43.2159 38.0118 44.378 38.6936 45.4762 39.4665C47.0474 40.5725 48.3731 41.9145 49.1821 43.6959C49.6059 44.6291 49.7732 45.6181 49.7874 46.6373Z" fill="#332C22"/>
<path d="M24.4521 19.9895C24.4564 21.4281 24.2015 22.9816 23.5197 24.4411C22.7902 26.0021 21.7347 27.2369 19.9989 27.7173C18.5707 28.1129 17.2521 27.7943 16.0229 27.0264C14.4057 26.0166 13.3121 24.551 12.4988 22.8655C11.3177 20.4176 10.8626 17.828 11.1046 15.1218C11.2476 13.5232 11.6997 12.0289 12.5929 10.6698C14.1332 8.32591 16.9017 7.66342 19.309 9.08973C20.8709 10.0152 21.965 11.3662 22.7968 12.9442C23.9305 15.0948 24.4706 17.3949 24.4521 19.9895Z" fill="#332C22"/>
<path d="M41.2631 15.7034C41.2656 18.6346 40.7245 21.094 39.3912 23.3442C38.6457 24.6026 37.6923 25.6736 36.374 26.3625C34.447 27.3695 32.3256 27.0006 30.8127 25.4258C29.6153 24.1793 28.9655 22.6619 28.6174 21.0013C28.0161 18.1304 28.3264 15.326 29.3431 12.5983C29.8352 11.2781 30.554 10.0699 31.5872 9.0953C32.5391 8.19723 33.6238 7.49379 34.9754 7.38153C36.6949 7.2387 38.045 7.96746 39.1244 9.25547C40.2368 10.5831 40.7923 12.1575 41.0681 13.838C41.1869 14.5626 41.2227 15.3008 41.2631 15.7034Z" fill="#332C22"/>
<path d="M0.949463 29.8335C0.973255 28.5243 1.22311 27.2936 2.00148 26.2259C3.01846 24.8304 4.44233 24.3157 6.12459 24.4211C7.82676 24.5277 9.27574 25.263 10.5767 26.3003C12.8939 28.148 14.4264 30.5069 15.0361 33.4256C15.3061 34.7168 15.3261 36.0201 14.8744 37.2778C14.0979 39.4401 12.3264 40.5568 10.0177 40.378C8.58131 40.2668 7.31702 39.6925 6.15697 38.8749C3.65639 37.1122 2.04645 34.7163 1.23126 31.7876C1.05623 31.1589 1.03925 30.486 0.949463 29.8335Z" fill="#332C22"/>
<path d="M53.5604 25.7498C53.1729 29.8159 51.5187 32.9591 48.3107 35.223C47.4197 35.8517 46.4178 36.2156 45.3234 36.3266C43.4729 36.5142 41.7902 35.4724 41.0945 33.6897C40.4831 32.1225 40.5186 30.5188 40.9033 28.9232C41.6434 25.8518 43.2944 23.3708 45.8889 21.552C47.0374 20.7469 48.3404 20.4182 49.7415 20.5351C51.3704 20.671 52.7474 21.8931 53.2235 23.6903C53.4159 24.417 53.4708 25.1797 53.5604 25.7498Z" fill="#332C22"/>
<path d="M129.829 39.2364H133.572L128.637 45.2078L134.007 51.6917H130.152L125.061 45.3749V51.6917H121.663V39.2364H125.061V45.2858L129.829 39.2364Z" fill="#332C22"/>
<path d="M119.313 45.4418C119.313 46.4816 119.172 47.4025 118.89 48.2047C118.615 49.0068 118.21 49.6864 117.675 50.2434C117.148 50.793 116.509 51.2089 115.759 51.4911C115.016 51.7734 114.177 51.9145 113.241 51.9145C112.365 51.9145 111.559 51.7734 110.824 51.4911C110.096 51.2089 109.461 50.793 108.919 50.2434C108.384 49.6864 107.968 49.0068 107.671 48.2047C107.381 47.4025 107.237 46.4816 107.237 45.4418C107.237 44.0603 107.482 42.8906 107.972 41.9325C108.462 40.9744 109.16 40.2465 110.066 39.7489C110.972 39.2513 112.053 39.0025 113.308 39.0025C114.474 39.0025 115.507 39.2513 116.405 39.7489C117.311 40.2465 118.021 40.9744 118.533 41.9325C119.053 42.8906 119.313 44.0603 119.313 45.4418ZM110.701 45.4418C110.701 46.2588 110.79 46.9458 110.969 47.5028C111.147 48.0598 111.425 48.4795 111.804 48.7617C112.183 49.0439 112.677 49.185 113.286 49.185C113.888 49.185 114.374 49.0439 114.745 48.7617C115.124 48.4795 115.399 48.0598 115.57 47.5028C115.748 46.9458 115.837 46.2588 115.837 45.4418C115.837 44.6174 115.748 43.9341 115.57 43.3919C115.399 42.8423 115.124 42.4301 114.745 42.1553C114.367 41.8805 113.873 41.7431 113.264 41.7431C112.365 41.7431 111.711 42.0513 111.303 42.6678C110.902 43.2842 110.701 44.2089 110.701 45.4418Z" fill="#332C22"/>
<path d="M104.885 39.2364V51.6917H101.476V41.7876H96.9642V51.6917H93.5663V39.2364H104.885Z" fill="#332C22"/>
<path d="M85.3316 38.9802C87.0027 38.9802 88.2839 39.3441 89.1751 40.072C90.0664 40.7998 90.512 41.9065 90.512 43.3919V51.6917H88.139L87.4817 49.9983H87.3926C87.0361 50.4439 86.6722 50.8078 86.3008 51.0901C85.9295 51.3723 85.5024 51.5803 85.0197 51.7139C84.5369 51.8476 83.9502 51.9145 83.2594 51.9145C82.5242 51.9145 81.8632 51.7734 81.2764 51.4911C80.6971 51.2089 80.2403 50.7781 79.9061 50.1988C79.5719 49.6121 79.4048 48.8694 79.4048 47.9707C79.4048 46.6487 79.869 45.6757 80.7974 45.0519C81.7257 44.4205 83.1183 44.0715 84.9751 44.0046L87.1364 43.9378V43.3919C87.1364 42.7383 86.9656 42.2593 86.6239 41.9548C86.2823 41.6502 85.8069 41.498 85.1979 41.498C84.5963 41.498 84.0059 41.5834 83.4266 41.7542C82.8472 41.925 82.2679 42.1404 81.6886 42.4004L80.5634 40.1054C81.2244 39.7563 81.9634 39.4815 82.7804 39.281C83.6048 39.0805 84.4552 38.9802 85.3316 38.9802ZM87.1364 45.9208L85.8218 45.9654C84.7226 45.9951 83.9576 46.1919 83.5268 46.5558C83.1035 46.9198 82.8918 47.3988 82.8918 47.993C82.8918 48.5129 83.0441 48.8842 83.3486 49.107C83.6531 49.3224 84.0504 49.4301 84.5406 49.4301C85.2685 49.4301 85.8812 49.2147 86.3788 48.784C86.8839 48.3532 87.1364 47.7405 87.1364 46.9458V45.9208Z" fill="#332C22"/>
<path d="M76.8423 51.6917H73.3998V38.2784H69.4115C69.3223 38.9766 69.2258 39.7378 69.1218 40.5622C69.0178 41.3866 68.9101 42.2185 68.7987 43.0577C68.6873 43.897 68.5685 44.6954 68.4422 45.453C68.3234 46.2105 68.2046 46.8753 68.0857 47.4471C67.8926 48.3978 67.629 49.2074 67.2947 49.8758C66.968 50.5368 66.5186 51.0419 65.9467 51.3909C65.3823 51.74 64.6433 51.9145 63.7297 51.9145C63.4252 51.9145 63.1319 51.8923 62.8496 51.8477C62.5748 51.8031 62.3186 51.7437 62.0809 51.6694V48.8397C62.274 48.9066 62.4671 48.9623 62.6602 49.0068C62.8533 49.044 63.065 49.0625 63.2953 49.0625C63.5923 49.0625 63.8374 48.966 64.0305 48.7729C64.2311 48.5724 64.4093 48.2344 64.5653 47.7591C64.7213 47.2763 64.8772 46.6116 65.0332 45.7649C65.1 45.3936 65.1892 44.87 65.3006 44.1941C65.412 43.5108 65.5382 42.7124 65.6794 41.7989C65.8205 40.8779 65.9653 39.8752 66.1138 38.7909C66.2698 37.7065 66.4184 36.5776 66.5595 35.4041H76.8423V51.6917Z" fill="#332C22"/>
<path d="M153.37 18.1208C155.042 18.1208 156.323 18.4847 157.214 19.2125C158.105 19.9404 158.551 21.047 158.551 22.5324V30.8322H156.178L155.521 29.1388H155.431C155.075 29.5845 154.711 29.9484 154.34 30.2306C153.968 30.5129 153.541 30.7208 153.058 30.8545C152.576 30.9882 151.989 31.055 151.298 31.055C150.563 31.055 149.902 30.9139 149.315 30.6317C148.736 30.3495 148.279 29.9187 147.945 29.3394C147.611 28.7526 147.444 28.0099 147.444 27.1112C147.444 25.7892 147.908 24.8163 148.836 24.1924C149.765 23.5611 151.157 23.212 153.014 23.1452L155.175 23.0783V22.5324C155.175 21.8789 155.004 21.3998 154.663 21.0953C154.321 20.7908 153.846 20.6385 153.237 20.6385C152.635 20.6385 152.045 20.724 151.465 20.8948C150.886 21.0656 150.307 21.281 149.727 21.5409L148.602 19.246C149.263 18.8969 150.002 18.6221 150.819 18.4216C151.644 18.221 152.494 18.1208 153.37 18.1208ZM155.175 25.0614L153.861 25.1059C152.761 25.1356 151.996 25.3325 151.566 25.6964C151.142 26.0603 150.931 26.5394 150.931 27.1335C150.931 27.6534 151.083 28.0248 151.387 28.2476C151.692 28.463 152.089 28.5707 152.579 28.5707C153.307 28.5707 153.92 28.3553 154.418 27.9245C154.923 27.4937 155.175 26.881 155.175 26.0863V25.0614Z" fill="#332C22"/>
<path d="M142.764 18.377H146.507L141.572 24.3484L146.941 30.8322H143.087L137.995 24.5155V30.8322H134.598V18.377H137.995V24.4263L142.764 18.377Z" fill="#332C22"/>
<path d="M123.346 18.377V23.1675H128.092V18.377H131.49V30.8322H128.092V25.6964H123.346V30.8322H119.948V18.377H123.346Z" fill="#332C22"/>
<path d="M107.247 18.377V23.3011C107.247 23.5537 107.236 23.873 107.213 24.2592C107.198 24.638 107.176 25.0242 107.146 25.4179C107.117 25.8115 107.087 26.1643 107.057 26.4762C107.028 26.7882 107.005 26.9998 106.99 27.1112L112.739 18.377H116.828V30.8322H113.541V25.8635C113.541 25.455 113.556 25.0057 113.586 24.5155C113.615 24.0179 113.649 23.5499 113.686 23.1118C113.723 22.6736 113.749 22.343 113.764 22.1202L108.038 30.8322H103.96V18.377H107.247Z" fill="#332C22"/>
<path d="M102.089 20.9282H98.0119V30.8322H94.614V20.9282H90.5254V18.377H102.089V20.9282Z" fill="#332C22"/>
<path d="M83.5508 18.1208C85.2219 18.1208 86.5031 18.4847 87.3944 19.2125C88.2856 19.9404 88.7312 21.047 88.7312 22.5324V30.8322H86.3583L85.701 29.1388H85.6119C85.2554 29.5845 84.8914 29.9484 84.5201 30.2306C84.1487 30.5129 83.7217 30.7208 83.2389 30.8545C82.7561 30.9882 82.1694 31.055 81.4787 31.055C80.7434 31.055 80.0824 30.9139 79.4956 30.6317C78.9163 30.3495 78.4596 29.9187 78.1254 29.3394C77.7911 28.7526 77.624 28.0099 77.624 27.1112C77.624 25.7892 78.0882 24.8163 79.0166 24.1924C79.945 23.5611 81.3376 23.212 83.1943 23.1452L85.3556 23.0783V22.5324C85.3556 21.8789 85.1848 21.3998 84.8431 21.0953C84.5015 20.7908 84.0262 20.6385 83.4171 20.6385C82.8156 20.6385 82.2251 20.724 81.6458 20.8948C81.0665 21.0656 80.4872 21.281 79.9079 21.5409L78.7826 19.246C79.4437 18.8969 80.1827 18.6221 80.9996 18.4216C81.824 18.221 82.6744 18.1208 83.5508 18.1208ZM85.3556 25.0614L84.041 25.1059C82.9418 25.1356 82.1768 25.3325 81.7461 25.6964C81.3227 26.0603 81.111 26.5394 81.111 27.1335C81.111 27.6534 81.2633 28.0248 81.5678 28.2476C81.8723 28.463 82.2697 28.5707 82.7599 28.5707C83.4877 28.5707 84.1004 28.3553 84.5981 27.9245C85.1031 27.4937 85.3556 26.881 85.3556 26.0863V25.0614Z" fill="#332C22"/>
<path d="M77.1224 30.8323H73.1786L69.3908 24.6715L65.603 30.8323H61.9043L67.3075 22.4322L62.2497 14.5447H66.0598L69.569 20.4046L73.0115 14.5447H76.7325L71.6189 22.6216L77.1224 30.8323Z" fill="#332C22"/>
</svg>
