<svg aria-hidden="true" style="position: absolute; width: 0; height: 0; overflow: hidden;" version="1.1" xmlns="http://www.w3.org/2000/svg" xmlns:xlink="http://www.w3.org/1999/xlink">
<defs>
<symbol id="icon-menu" viewBox="0 0 32 32">
<path d="M4.936 24.295c-0.321 0-0.59-0.11-0.808-0.329s-0.327-0.493-0.327-0.82c0-0.322 0.109-0.591 0.327-0.807s0.488-0.323 0.808-0.323h22.127c0.321 0 0.591 0.11 0.812 0.329s0.331 0.49 0.331 0.812c0 0.328-0.11 0.599-0.331 0.814s-0.492 0.323-0.812 0.323h-22.127zM4.936 17.136c-0.321 0-0.59-0.11-0.808-0.329s-0.327-0.49-0.327-0.812c0-0.322 0.109-0.591 0.327-0.806s0.488-0.323 0.808-0.323h22.127c0.321 0 0.591 0.11 0.812 0.329s0.331 0.49 0.331 0.812c0 0.322-0.11 0.591-0.331 0.806s-0.492 0.323-0.812 0.323h-22.127zM4.936 9.984c-0.321 0-0.59-0.11-0.808-0.329s-0.327-0.493-0.327-0.82c0-0.322 0.109-0.591 0.327-0.806s0.488-0.323 0.808-0.323h22.127c0.321 0 0.591 0.11 0.812 0.329s0.331 0.49 0.331 0.812c0 0.328-0.11 0.599-0.331 0.815s-0.492 0.323-0.812 0.323h-22.127z"></path>
</symbol>
<symbol id="icon-star-half" viewBox="0 0 32 32">
<path stroke-linejoin="miter" stroke-linecap="butt" stroke-miterlimit="4" stroke-width="1.3333" d="M15.375 5.076c0.229-0.545 1.021-0.545 1.25 0l2.704 6.424c0.291 0.691 0.947 1.16 1.694 1.219l7.021 0.556c0.61 0.048 0.828 0.78 0.388 1.154l-5.35 4.527c-0.573 0.485-0.826 1.25-0.65 1.98l1.635 6.768c0.133 0.549-0.482 1.031-1.013 0.711h-0.001l-6.009-3.626c-0.641-0.387-1.447-0.387-2.089 0l-6.010 3.626c-0.531 0.32-1.146-0.162-1.013-0.711l1.635-6.768c0.176-0.73-0.077-1.495-0.65-1.98l-5.35-4.527c-0.44-0.373-0.222-1.105 0.388-1.154l7.021-0.556c0.747-0.059 1.403-0.527 1.694-1.219l2.704-6.424z"></path>
</symbol>
<symbol id="icon-star-filled" viewBox="0 0 32 32">
<path d="M14.761 4.816c0.458-1.089 2.019-1.089 2.478 0l2.705 6.425c0.193 0.459 0.63 0.772 1.132 0.812l7.021 0.556c1.19 0.094 1.672 1.561 0.766 2.328l-5.349 4.527c-0.382 0.323-0.549 0.831-0.432 1.314l1.634 6.769c0.277 1.147-0.986 2.053-2.004 1.439l-6.011-3.627c-0.429-0.259-0.969-0.259-1.399 0l-6.011 3.627c-1.018 0.615-2.281-0.292-2.004-1.439l1.634-6.769c0.117-0.483-0.050-0.991-0.432-1.314l-5.35-4.527c-0.906-0.767-0.424-2.234 0.766-2.328l7.021-0.556c0.502-0.040 0.938-0.353 1.132-0.812l2.705-6.425z"></path>
</symbol>
<symbol id="icon-star-outline" viewBox="0 0 32 32">
<path stroke-linejoin="miter" stroke-linecap="butt" stroke-miterlimit="4" stroke-width="2.6667" d="M16.010 5.335l2.704 6.424c0.389 0.924 1.263 1.545 2.255 1.624l7.011 0.555-5.329 4.509c-0.763 0.646-1.102 1.668-0.866 2.646l1.63 6.754c-0.002 0.001-0.003 0.003-0.005 0.004-0.002-0.001-0.006-0.003-0.010-0.005l-6.012-3.628c-0.853-0.515-1.923-0.515-2.776 0l-6.012 3.628c-0.005 0.003-0.008 0.004-0.010 0.005-0.002-0.001-0.004-0.002-0.007-0.004l1.631-6.754c0.221-0.916-0.062-1.871-0.728-2.519l-0.138-0.126-5.331-4.509 7.012-0.555c0.992-0.079 1.866-0.7 2.255-1.624l2.703-6.424c0.003-0.001 0.007-0.001 0.012-0.001s0.007 0.001 0.010 0.001z"></path>
</symbol>
<symbol id="icon-close" viewBox="0 0 32 32">
<path stroke-linejoin="miter" stroke-linecap="butt" stroke-miterlimit="4" stroke-width="1.3333" d="M23.466 7.9c0.219 0 0.355 0.065 0.462 0.172s0.172 0.242 0.172 0.461c0 0.219-0.065 0.355-0.172 0.462l-7.005 7.005 7.005 7.004c0.107 0.107 0.172 0.243 0.172 0.462s-0.065 0.355-0.172 0.462-0.243 0.172-0.462 0.172c-0.219-0-0.355-0.065-0.462-0.172l-7.004-7.005-7.005 7.005c-0.107 0.107-0.243 0.172-0.462 0.172s-0.354-0.065-0.461-0.172c-0.107-0.107-0.172-0.243-0.172-0.462s0.065-0.355 0.172-0.462l7.004-7.004-7.004-7.005c-0.107-0.107-0.172-0.243-0.172-0.462s0.065-0.354 0.172-0.461 0.242-0.172 0.461-0.172c0.219 0 0.355 0.065 0.462 0.172l7.005 7.004 7.004-7.004c0.107-0.107 0.243-0.172 0.462-0.172z"></path>
</symbol>
<symbol id="icon-add" viewBox="0 0 32 32">
<path d="M14.864 17.136h-7.261c-0.321 0-0.59-0.11-0.808-0.329s-0.327-0.49-0.327-0.812c0-0.322 0.109-0.591 0.327-0.806s0.488-0.323 0.808-0.323h7.261v-7.261c0-0.32 0.11-0.591 0.329-0.812s0.49-0.332 0.812-0.332c0.322 0 0.591 0.111 0.806 0.332s0.323 0.492 0.323 0.812v7.261h7.261c0.32 0 0.591 0.11 0.812 0.329s0.332 0.49 0.332 0.812c0 0.322-0.111 0.591-0.332 0.806s-0.492 0.323-0.812 0.323h-7.261v7.261c0 0.321-0.11 0.59-0.329 0.808s-0.49 0.327-0.812 0.327c-0.322 0-0.591-0.109-0.806-0.327s-0.323-0.488-0.323-0.808v-7.261z"></path>
</symbol>
<symbol id="icon-arrow_back" viewBox="0 0 32 32">
<path stroke-linejoin="miter" stroke-linecap="butt" stroke-miterlimit="4" stroke-width="1.3333" d="M16.010 6.249c0.114 0 0.212 0.035 0.322 0.145 0.11 0.115 0.145 0.217 0.145 0.332-0 0.116-0.035 0.214-0.145 0.324l-8.482 8.482h17.88c0.162 0 0.262 0.047 0.348 0.132 0.083 0.082 0.129 0.177 0.129 0.337s-0.046 0.255-0.129 0.337c-0.085 0.084-0.186 0.131-0.348 0.132h-17.88l8.474 8.473c0.11 0.11 0.147 0.212 0.148 0.335v0.001c0.001 0.089-0.019 0.167-0.074 0.246l-0.069 0.082c-0.107 0.108-0.204 0.143-0.323 0.142-0.126-0.001-0.23-0.041-0.341-0.151l-9.264-9.264c-0.071-0.072-0.105-0.128-0.121-0.167v-0.001c-0.020-0.048-0.031-0.102-0.031-0.165s0.012-0.116 0.031-0.163v-0.001c0.016-0.038 0.050-0.095 0.121-0.167l9.267-9.267c0.121-0.116 0.227-0.152 0.342-0.152z"></path>
</symbol>
<symbol id="icon-arrow_forward" viewBox="0 0 32 32">
<path stroke-linejoin="miter" stroke-linecap="butt" stroke-miterlimit="4" stroke-width="1.3333" d="M15.993 6.253c0.095 0.001 0.177 0.023 0.259 0.081l0.082 0.070 9.264 9.264c0.071 0.072 0.105 0.128 0.121 0.167v0.001c0.020 0.048 0.031 0.102 0.031 0.165s-0.012 0.116-0.031 0.163v0.001c-0.016 0.038-0.050 0.094-0.121 0.167l-9.272 9.264c-0.122 0.12-0.227 0.155-0.337 0.155-0.108-0-0.204-0.033-0.315-0.147l-0.007-0.007-0.069-0.081c-0.056-0.079-0.075-0.157-0.075-0.243s0.020-0.163 0.075-0.242l0.069-0.081 8.482-8.482h-17.88c-0.163-0-0.259-0.047-0.34-0.128h-0.001c-0.081-0.081-0.128-0.179-0.128-0.341s0.046-0.26 0.128-0.341h0.001c0.081-0.081 0.177-0.127 0.34-0.128h17.88l-8.474-8.474c-0.082-0.082-0.124-0.16-0.141-0.246l-0.008-0.090c-0.001-0.12 0.034-0.218 0.141-0.326l0.001-0.001c0.107-0.107 0.205-0.143 0.324-0.142z"></path>
</symbol>
<symbol id="icon-instagram" viewBox="0 0 32 32">
<path d="M15.998 6.161c3.206 0 3.585 0.014 4.846 0.071 1.172 0.052 1.804 0.248 2.226 0.412 0.558 0.216 0.961 0.478 1.378 0.895 0.422 0.422 0.679 0.82 0.9 1.378 0.164 0.422 0.361 1.059 0.412 2.226 0.056 1.266 0.071 1.645 0.071 4.847s-0.014 3.585-0.071 4.847c-0.052 1.172-0.248 1.804-0.412 2.227-0.216 0.558-0.478 0.961-0.895 1.377-0.422 0.422-0.82 0.679-1.378 0.9-0.422 0.164-1.060 0.361-2.226 0.412-1.266 0.056-1.645 0.071-4.847 0.071s-3.585-0.014-4.847-0.071c-1.172-0.052-1.804-0.248-2.226-0.412-0.558-0.216-0.961-0.478-1.378-0.895-0.422-0.422-0.679-0.82-0.9-1.378-0.164-0.422-0.361-1.060-0.412-2.226-0.056-1.266-0.071-1.645-0.071-4.847s0.014-3.585 0.071-4.847c0.052-1.172 0.248-1.804 0.412-2.226 0.216-0.558 0.478-0.961 0.895-1.378 0.422-0.422 0.82-0.679 1.378-0.9 0.422-0.164 1.059-0.361 2.226-0.412 1.261-0.056 1.641-0.071 4.847-0.071h0.001zM15.998 4.001c-3.258 0-3.665 0.014-4.945 0.071-1.275 0.056-2.151 0.262-2.91 0.558-0.792 0.309-1.462 0.717-2.127 1.387-0.67 0.666-1.078 1.336-1.387 2.123-0.295 0.764-0.502 1.636-0.558 2.91-0.056 1.285-0.071 1.692-0.071 4.949s0.014 3.665 0.071 4.945c0.056 1.275 0.262 2.151 0.558 2.91 0.31 0.792 0.717 1.462 1.387 2.127 0.665 0.665 1.336 1.078 2.123 1.383 0.764 0.295 1.636 0.502 2.91 0.558 1.279 0.056 1.687 0.071 4.945 0.071s3.666-0.014 4.945-0.071c1.275-0.056 2.151-0.262 2.91-0.558 0.787-0.305 1.458-0.717 2.123-1.383s1.078-1.336 1.383-2.123c0.295-0.764 0.502-1.635 0.558-2.91 0.056-1.279 0.071-1.687 0.071-4.945s-0.014-3.665-0.071-4.945c-0.056-1.275-0.262-2.151-0.558-2.91-0.295-0.797-0.703-1.467-1.373-2.133-0.665-0.665-1.336-1.078-2.123-1.383-0.764-0.295-1.635-0.502-2.91-0.558-1.284-0.061-1.692-0.075-4.949-0.075l-0.001 0.001z"></path>
<path d="M15.997 9.836c-3.402 0-6.163 2.76-6.163 6.163s2.76 6.163 6.163 6.163c3.403 0 6.163-2.76 6.163-6.163s-2.76-6.163-6.163-6.163zM15.997 19.997c-2.208 0-3.998-1.79-3.998-3.998s1.79-3.998 3.998-3.998c2.208 0 3.998 1.79 3.998 3.998s-1.79 3.998-3.998 3.998z"></path>
<path d="M23.842 9.592c0 0.795-0.644 1.439-1.439 1.439s-1.439-0.644-1.439-1.439 0.644-1.439 1.439-1.439c0.795 0 1.439 0.644 1.439 1.439z"></path>
</symbol>
<symbol id="icon-facebook" viewBox="0 0 32 32">
<path d="M29.333 16.405c0-7.409-5.969-13.415-13.333-13.415s-13.333 6.006-13.333 13.415c0 6.696 4.876 12.245 11.25 13.252v-9.374h-3.385v-3.878h3.385v-2.955c0-3.362 1.991-5.219 5.036-5.219 1.459 0 2.985 0.262 2.985 0.262v3.301h-1.681c-1.656 0-2.173 1.034-2.173 2.095v2.516h3.698l-0.591 3.878h-3.107v9.374c6.374-1.006 11.25-6.556 11.25-13.252z"></path>
</symbol>
</defs>
</svg>
